<svg width="61" height="61" viewBox="0 0 61 61" fill="none" xmlns="http://www.w3.org/2000/svg">
<path d="M30.6523 60C47.2189 60 60.6523 46.5665 60.6523 30C60.6523 13.4335 47.2189 0 30.6523 0C14.0858 0 0.652344 13.4335 0.652344 30C0.652344 46.5665 14.0817 60 30.6523 60Z" fill="#CEEDFA"/>
<path d="M30.2809 28.957C30.4089 28.957 30.5208 28.9732 30.6487 28.9732C34.7739 28.9732 38.1157 25.582 38.1157 21.4317C38.1157 17.2653 34.7739 13.874 30.6487 13.874C26.5234 13.874 23.1816 17.2653 23.1816 21.4156C23.1816 25.4527 26.2996 28.7632 30.2809 28.957Z" fill="#4008E2"/>
<path d="M18.5742 41.0044C18.5742 34.2198 26.6241 30.8062 30.6553 30.8062C34.6866 30.8062 42.7364 34.2411 42.7617 41.0044V43.5647C42.7617 44.9728 42.0793 46.1249 41.2453 46.1249H20.0907C19.2566 46.1249 18.5742 44.9728 18.5742 43.5647V41.0044Z" fill="url(#paint0_linear_784_660)"/>
<path d="M4.09675 55.208C5.63275 53.928 6.85675 52.864 7.76875 52.016C8.68075 51.152 9.44075 50.256 10.0488 49.328C10.6568 48.4 10.9608 47.488 10.9608 46.592C10.9608 45.776 10.7688 45.136 10.3848 44.672C10.0008 44.208 9.40875 43.976 8.60875 43.976C7.80875 43.976 7.19275 44.248 6.76075 44.792C6.32875 45.32 6.10475 46.048 6.08875 46.976H2.82475C2.88875 45.056 3.45675 43.6 4.52875 42.608C5.61675 41.616 6.99275 41.12 8.65675 41.12C10.4808 41.12 11.8808 41.608 12.8568 42.584C13.8328 43.544 14.3208 44.816 14.3208 46.4C14.3208 47.648 13.9848 48.84 13.3128 49.976C12.6408 51.112 11.8728 52.104 11.0088 52.952C10.1448 53.784 9.01675 54.792 7.62475 55.976H14.7048V58.76H2.84875V56.264L4.09675 55.208Z" fill="#4008E2"/>
<defs>
<linearGradient id="paint0_linear_784_660" x1="18.42" y1="43.579" x2="43.0516" y2="38.2106" gradientUnits="userSpaceOnUse">
<stop stop-color="#60C4F0"/>
<stop offset="1" stop-color="#4008E2"/>
</linearGradient>
</defs>
</svg>
